<svg xmlns="http://www.w3.org/2000/svg" xmlns:xlink="http://www.w3.org/1999/xlink" id="Layer_1" width="841.89" height="595.281" viewBox="0 0 841.89 595.281" enable-background="new 0 0 841.89 595.281"><path fill="#fff" stroke="#000" stroke-width="1.2304" stroke-miterlimit="10" d="M665.945 552.806H175.944L420.944 42.473z"/><path fill="none" stroke="#000" stroke-width="1.3449" stroke-miterlimit="10" d="M384.354 118.69H457.535z"/><path fill="none" stroke="#000" stroke-width="1.2304" stroke-miterlimit="10" d="M359.694 170.056H482.195z"/><path fill="none" stroke="#000" stroke-width="1.2304" stroke-miterlimit="10" d="M329.069 233.848H512.82z"/><path fill="none" stroke="#000" stroke-width="1.2304" stroke-miterlimit="10" d="M298.444 297.64H543.445z"/><path fill="none" stroke="#000" stroke-width="1.2304" stroke-miterlimit="10" d="M267.82 361.431H574.07z"/><path fill="none" stroke="#000" stroke-width="1.2304" stroke-miterlimit="10" d="M237.195 425.224H604.695z"/><path fill="none" stroke="#000" stroke-width="1.2304" stroke-miterlimit="10" d="M206.569 489.015H635.32z"/><path fill="none" stroke="#000" stroke-width="1.2304" stroke-miterlimit="10" d="M175.944 552.806H665.945z"/><path fill="none" d="M397.694 95.015h46.5v13.75h-46.5z"/><switch><text transform="matrix(1 0 0 1 400.6641 114.2654)" font-family="'TimesNewRomanPSMT'" font-size="12" id="trsvg13-fa" systemLanguage="fa"><tspan id="trsvg1-fa">امپراتور</tspan></text><text transform="matrix(1 0 0 1 400.6641 114.2654)" font-family="'TimesNewRomanPSMT'" font-size="12" id="trsvg13"><tspan id="trsvg1">Emperor</tspan></text></switch><path fill="none" d="M369.444 219.348h103v17.5h-103z"/><switch><text transform="matrix(1 0 0 1 403.3193 227.6892)" font-family="'TimesNewRomanPSMT'" font-size="12" id="trsvg14-fa" systemLanguage="fa"><tspan id="trsvg2-fa">شوگون</tspan></text><text transform="matrix(1 0 0 1 403.3193 227.6892)" font-family="'TimesNewRomanPSMT'" font-size="12" id="trsvg14"><tspan id="trsvg2">Shogun</tspan></text></switch><path fill="none" d="M367.195 156.695h107.5v19.5h-107.5z"/><switch><text transform="matrix(1 0 0 1 386.4873 165.0349)" font-family="'TimesNewRomanPSMT'" font-size="12" id="trsvg15-fa" systemLanguage="fa"><tspan id="trsvg3-fa">اشراف دربار</tspan></text><text transform="matrix(1 0 0 1 386.4873 165.0349)" font-family="'TimesNewRomanPSMT'" font-size="12" id="trsvg15"><tspan id="trsvg3">Court Nobility</tspan></text></switch><path fill="none" d="M389.944 284.14h62v13.5h-62z"/><switch><text transform="matrix(1 0 0 1 402.3252 292.4802)" font-family="'TimesNewRomanPSMT'" font-size="12" id="trsvg16-fa" systemLanguage="fa"><tspan id="trsvg4-fa">دایمیو</tspan></text><text transform="matrix(1 0 0 1 402.3252 292.4802)" font-family="'TimesNewRomanPSMT'" font-size="12" id="trsvg16"><tspan id="trsvg4">Daimyo</tspan></text></switch><path fill="none" d="M358.278 347.73h125.334v16.702H358.278z"/><switch><text transform="matrix(1 0 0 1 401.6602 356.0701)" font-family="'TimesNewRomanPSMT'" font-size="12" id="trsvg17-fa" systemLanguage="fa"><tspan id="trsvg5-fa">سامورایی</tspan></text><text transform="matrix(1 0 0 1 401.6602 356.0701)" font-family="'TimesNewRomanPSMT'" font-size="12" id="trsvg17"><tspan id="trsvg5">Samurai</tspan></text></switch><path fill="none" d="M381.695 409.695h78.5v13.5h-78.5z"/><switch><text transform="matrix(1 0 0 1 400.2813 418.0349)" font-family="'TimesNewRomanPSMT'" font-size="12" id="trsvg18-fa" systemLanguage="fa"><tspan id="trsvg6-fa">دهقان</tspan></text><text transform="matrix(1 0 0 1 400.2813 418.0349)" font-family="'TimesNewRomanPSMT'" font-size="12" id="trsvg18"><tspan id="trsvg6">Peasants</tspan></text></switch><path fill="none" d="M390.695 475.015h60.5v14h-60.5z"/><switch><text transform="matrix(1 0 0 1 396.6621 483.3552)" font-family="'TimesNewRomanPSMT'" font-size="12" id="trsvg19-fa" systemLanguage="fa"><tspan id="trsvg7-fa">صنعتگر</tspan></text><text transform="matrix(1 0 0 1 396.6621 483.3552)" font-family="'TimesNewRomanPSMT'" font-size="12" id="trsvg19"><tspan id="trsvg7">Craftsmen</tspan></text></switch><path fill="none" d="M380.945 538.445h80v11.5h-80z"/><switch><text transform="matrix(1 0 0 1 395.6211 546.7849)" font-family="'TimesNewRomanPSMT'" font-size="12" id="trsvg20-fa" systemLanguage="fa"><tspan id="trsvg8-fa">کاسب</tspan></text><text transform="matrix(1 0 0 1 395.6211 546.7849)" font-family="'TimesNewRomanPSMT'" font-size="12" id="trsvg20"><tspan id="trsvg8">Merchants</tspan></text></switch><path fill="none" stroke="#000" stroke-miterlimit="10" d="M482.195 42.473V170.056z"/><switch><text transform="matrix(1 0 0 1 515.0444 101.8904)" font-family="'Calibri-Light'" font-size="14" id="trsvg21-fa" systemLanguage="fa"><tspan id="trsvg9-fa">امپراتور تشریفاتی و</tspan></text><text transform="matrix(1 0 0 1 515.0444 101.8904)" font-family="'Calibri-Light'" font-size="14" id="trsvg21"><tspan id="trsvg9">Figurehead and</tspan></text></switch><switch><text transform="matrix(1 0 0 1 501.7319 118.6902)" font-family="'Calibri-Light'" font-size="14" id="trsvg22-fa" systemLanguage="fa"><tspan id="trsvg10-fa">درباریان حاکم اسمی</tspan></text><text transform="matrix(1 0 0 1 501.7319 118.6902)" font-family="'Calibri-Light'" font-size="14" id="trsvg22"><tspan id="trsvg10">nominal ruling court</tspan></text></switch><path fill="none" stroke="#000" stroke-miterlimit="10" d="M574.07 170.056V361.431z"/><path fill="none" d="M574.07 254.778h134.666v36.112H574.07z"/><switch><text transform="matrix(1 0 0 1 588.2183 264.2703)" font-family="'Calibri-Light'" font-size="14" id="trsvg23-fa" systemLanguage="fa"><tspan id="trsvg11-fa">سران نظامی و</tspan></text><text transform="matrix(1 0 0 1 588.2183 264.2703)" font-family="'Calibri-Light'" font-size="14" id="trsvg23"><tspan id="trsvg11">Military leader and</tspan></text></switch><switch><text transform="matrix(1 0 0 1 591.8999 281.0701)" font-family="'Calibri-Light'" font-size="14" id="trsvg24-fa" systemLanguage="fa"><tspan id="trsvg12-fa">طبقه واقعی حکمران</tspan></text><text transform="matrix(1 0 0 1 591.8999 281.0701)" font-family="'Calibri-Light'" font-size="14" id="trsvg24"><tspan id="trsvg12">actual ruling class</tspan></text></switch></svg>