<svg xmlns="http://www.w3.org/2000/svg" xmlns:cc="http://web.resource.org/cc/" xmlns:svg="http://www.w3.org/2000/svg" xmlns:xlink="http://www.w3.org/1999/xlink" id="svg2" width="1420" height="1123" version="1.0"><metadata id="metadata7"/><defs id="defs5"><linearGradient id="linearGradient3176"><stop style="stop-color:#000;stop-opacity:1" id="stop3178" offset="0"/><stop style="stop-color:gray;stop-opacity:0" id="stop3180" offset="1"/></linearGradient><linearGradient id="linearGradient3182" x1="370.88" x2="930.938" y1="561" y2="561" gradientTransform="matrix(-1,0,0,1,1446.5124,2.1596154)" gradientUnits="userSpaceOnUse" xlink:href="#linearGradient3176"/></defs><path style="fill:none;fill-rule:evenodd;stroke:#000;stroke-width:4.30232525;stroke-linecap:butt;stroke-linejoin:miter;stroke-opacity:1" id="path1897" d="M 29.506104,559.94884 C 1426.4049,559.94884 1426.4049,559.94884 1426.4049,559.94884"/><path id="path1901" d="M 265.52703 187.51462 A 3.7812395 3.8862739 0 1 1 257.96455,187.51462 A 3.7812395 3.8862739 0 1 1 265.52703 187.51462 z" transform="matrix(3.966954,0,0,3.859737,-795.5526,-164.0196)" style="fill:red;fill-opacity:1;fill-rule:nonzero;stroke:none;stroke-width:4;stroke-linejoin:miter;stroke-opacity:1"/><path style="fill:red;fill-opacity:1;fill-rule:nonzero;stroke:none;stroke-width:4;stroke-linejoin:miter;stroke-opacity:1" id="path1903" d="M 265.52703 187.51462 A 3.7812395 3.8862739 0 1 1 257.96455,187.51462 A 3.7812395 3.8862739 0 1 1 265.52703 187.51462 z" transform="matrix(3.966954,0,0,3.859737,-481.31674,-164.01959)"/><text style="font-size:64px;font-style:normal;font-weight:400;fill:green;fill-opacity:1;stroke:none;stroke-width:1px;stroke-linecap:butt;stroke-linejoin:miter;stroke-opacity:1;font-family:Georgia" id="text1905" x="206.208" y="1002.641" xml:space="preserve"><tspan style="font-size:64px;font-weight:400;fill:#000;fill-opacity:1" id="tspan1909" x="206.208" y="1002.641">Reflective</tspan><tspan style="font-size:64px;font-weight:400;fill:#000;fill-opacity:1" id="tspan6486" x="206.208" y="1082.641">surface</tspan></text><text id="text1911" x="1023.592" y="243.622" xml:space="preserve" style="font-size:64px;font-style:normal;font-weight:400;fill:#000;fill-opacity:1;stroke:none;stroke-width:1px;stroke-linecap:butt;stroke-linejoin:miter;stroke-opacity:1;font-family:Georgia"><tspan id="tspan1915" x="1023.592" y="243.622" style="font-size:64px;fill:#000">Hard surface</tspan></text><text style="font-size:72px;font-style:normal;font-weight:400;fill:#000;fill-opacity:1;stroke:none;stroke-width:1px;stroke-linecap:butt;stroke-linejoin:miter;stroke-opacity:1;font-family:Georgia" id="text1917" x="37.082" y="138.288" xml:space="preserve"><tspan style="font-size:54px;fill:#000" id="tspan1921" x="37.082" y="138.288">Light comes</tspan><tspan style="font-size:54px;fill:#000" id="tspan1927" x="37.082" y="205.788">from this side</tspan></text><text style="font-size:60px;text-align:center;text-anchor:middle;fill:#000;font-family:Georgia" id="text1931" x="245.174" y="629.007" xml:space="preserve"><tspan style="font-size:60px;text-align:center;text-anchor:middle;fill:#000;font-family:Georgia" id="tspan1933" x="245.174" y="629.007">Center of</tspan><tspan style="font-size:60px;text-align:center;text-anchor:middle;fill:#000;font-family:Georgia" id="tspan1937" x="245.174" y="704.007">curvature</tspan></text><text id="text1939" x="563.262" y="629.007" xml:space="preserve" style="font-size:60px;text-align:center;text-anchor:middle;fill:#000;font-family:Georgia"><tspan style="font-size:60px;text-align:center;text-anchor:middle;fill:#000;font-family:Georgia" id="tspan1952" x="563.262" y="629.007">Focus</tspan></text><text id="text1954" x="1220.169" y="623.98" xml:space="preserve" style="font-size:64px;font-style:normal;font-weight:400;text-align:center;text-anchor:middle;fill:#000;fill-opacity:1;stroke:none;stroke-width:1px;stroke-linecap:butt;stroke-linejoin:miter;stroke-opacity:1;font-family:Georgia"><tspan style="font-size:64px;text-align:center;text-anchor:middle;fill:#000" id="tspan1967" x="1227.919" y="623.98">Principal </tspan><tspan style="font-size:64px;text-align:center;text-anchor:middle;fill:#000" id="tspan3200" x="1220.169" y="703.98">axis</tspan></text><text style="font-size:120px;font-style:normal;font-weight:400;fill:navy;fill-opacity:1;stroke:none;stroke-width:1px;stroke-linecap:butt;stroke-linejoin:miter;stroke-opacity:1;font-family:Georgia" id="text2860" x="517.475" y="486.287" xml:space="preserve"><tspan id="tspan2862" x="517.475" y="486.287" style="font-size:60px;font-weight:400;fill:navy">Focal length</tspan></text><path id="path2864" d="M 455.44148,137.76782 L 654.03809,258.38642" style="fill:#efec33;fill-opacity:1;fill-rule:evenodd;stroke:#efec47;stroke-width:2.99999881;stroke-linecap:butt;stroke-linejoin:miter;stroke-opacity:1"/><path id="path2866" d="M 160.07246,864.35645 L 144.71009,866.45504 L 128.04855,868.56079 L 133.91231,854.20729 L 140.41944,838.72509 L 149.91806,850.98001 L 160.07246,864.35645 z" transform="matrix(-0.932871,0.832797,-2.217348,-1.561785,2660.0908,1460.4575)" style="fill:#efec33;fill-opacity:1;fill-rule:nonzero;stroke:#efec47;stroke-width:1.36593282;stroke-linejoin:miter;stroke-opacity:1"/><path style="fill:#000;fill-opacity:1;fill-rule:evenodd;stroke:#000;stroke-width:3.01572537;stroke-linecap:butt;stroke-linejoin:miter;stroke-opacity:1" id="path5523" d="M 688.98319,1023.196 L 500.06231,1023.168"/><path id="path6410" d="M 877.68089,219.00309 L 1005.0724,218.77158" style="fill:#000;fill-opacity:1;fill-rule:evenodd;stroke:#000;stroke-width:3.00000286;stroke-linecap:butt;stroke-linejoin:miter;stroke-opacity:1"/><path style="fill:url(#linearGradient3182);fill-opacity:1;fill-rule:evenodd;stroke:none;stroke-width:1px;stroke-linecap:butt;stroke-linejoin:miter;stroke-opacity:1" id="path2191" d="M 636.51238,21.159616 C 942.62555,335.25673 922.23455,796.39434 636.51238,1105.1596 C 1112.2561,798.96225 1147.1603,338.02067 636.51238,21.159616 z"/><path style="fill:#0a1692;fill-opacity:1;fill-rule:nonzero;stroke:none;stroke-width:4;stroke-linejoin:miter;stroke-opacity:1" id="path1971" d="M 160.07246,864.35645 L 144.4329,866.42782 L 128.04855,868.56079 L 134.07447,853.98085 L 140.41944,838.72509 L 150.03308,851.23367 L 160.07246,864.35645 z" transform="matrix(0.3251569,1.001268,2.486358,-0.130942,-1576.6169,501.94782)"/><path style="fill:red;fill-opacity:1;fill-rule:nonzero;stroke:none;stroke-width:4;stroke-linejoin:miter;stroke-opacity:1" id="path1899" d="M 265.52703 187.51462 A 3.7812395 3.8862739 0 1 1 257.96455,187.51462 A 3.7812395 3.8862739 0 1 1 265.52703 187.51462 z" transform="matrix(3.966954,0,0,3.859737,-186.63306,-161.85998)"/><text style="font-size:78.41459656px;font-style:normal;font-variant:normal;font-weight:400;font-stretch:normal;text-align:start;line-height:125%;writing-mode:lr-tb;text-anchor:start;fill:#000;fill-opacity:1;stroke:none;stroke-width:1px;stroke-linecap:butt;stroke-linejoin:miter;stroke-opacity:1;font-family:Times New Roman" id="text3168" x="509.765" y="722.063" transform="scale(1.0193536,0.9810138)" xml:space="preserve"><tspan id="tspan3170" x="509.765" y="722.063">(F)</tspan></text><text style="font-size:73.66823578px;font-style:normal;font-variant:normal;font-weight:400;font-stretch:normal;text-align:start;line-height:125%;writing-mode:lr-tb;text-anchor:start;fill:#000;fill-opacity:1;stroke:none;stroke-width:1px;stroke-linecap:butt;stroke-linejoin:miter;stroke-opacity:1;font-family:Times New Roman" id="text3172" x="186.029" y="754.244" transform="scale(0.9701363,1.030783)" xml:space="preserve"><tspan id="tspan3174" x="186.029" y="754.244">(2F)</tspan></text><path style="fill:#efec33;fill-opacity:1;fill-rule:evenodd;stroke:#efec47;stroke-width:2.99999881;stroke-linecap:butt;stroke-linejoin:miter;stroke-opacity:1" id="path3184" d="M 457.60108,925.12765 L 656.19769,804.50905"/><path style="fill:#efec33;fill-opacity:1;fill-rule:nonzero;stroke:#efec47;stroke-width:1.36593282;stroke-linejoin:miter;stroke-opacity:1" id="path3186" d="M 160.07246,864.35645 L 144.71009,866.45504 L 128.04855,868.56079 L 133.91231,854.20729 L 140.41944,838.72509 L 149.91806,850.98001 L 160.07246,864.35645 z" transform="matrix(-0.932871,-0.832797,-2.217348,1.561785,2662.2503,-397.56207)"/><path style="fill:#0a1692;fill-opacity:1;fill-rule:evenodd;stroke:#161895;stroke-width:3.70000005;stroke-linecap:butt;stroke-linejoin:miter;stroke-miterlimit:4;stroke-dasharray:none;stroke-opacity:1" id="path1969" d="M 856.84883,532.71048 L 584.94908,532.71048"/></svg>