<svg xmlns="http://www.w3.org/2000/svg" xmlns:xlink="http://www.w3.org/1999/xlink" id="Ebene_1" width="142.48" height="106.58" x="0" y="0" fill="currentColor" enable-background="new 0 0 142.48 106.58" version="1.1" viewBox="0 0 142.48 106.58" xml:space="preserve"><path d="M44.65,22.182V5.002h2.273v7.055h8.93V5.002h2.273v17.18h-2.273v-8.098h-8.93v8.098H44.65z"/><path d="M56.653,55.851l2.273,0.574c-0.477,1.867-1.334,3.291-2.572,4.271s-2.752,1.471-4.541,1.471	c-1.852,0-3.357-0.377-4.518-1.131s-2.043-1.846-2.648-3.275s-0.908-2.965-0.908-4.605c0-1.789,0.342-3.35,1.025-4.682	s1.656-2.344,2.918-3.035s2.65-1.037,4.166-1.037c1.719,0,3.164,0.438,4.336,1.313s1.988,2.105,2.449,3.691l-2.238,0.527	c-0.398-1.25-0.977-2.16-1.734-2.73s-1.711-0.855-2.859-0.855c-1.32,0-2.424,0.316-3.311,0.949s-1.51,1.482-1.869,2.549	s-0.539,2.166-0.539,3.299c0,1.461,0.213,2.736,0.639,3.826s1.088,1.904,1.986,2.443s1.871,0.809,2.918,0.809	c1.273,0,2.352-0.367,3.234-1.102S56.341,57.296,56.653,55.851z"/><rect width="1.7" height="17.7" x="50.534" y="24.43"/><path d="M44.65,101.578v-17.18h2.273v7.055h8.93v-7.055h2.273v17.18h-2.273V93.48h-8.93v8.098H44.65z"/><rect width="1.7" height="17.65" x="50.534" y="64.48"/><path d="M96.338,55.851l2.273,0.574c-0.477,1.867-1.334,3.291-2.572,4.271s-2.752,1.471-4.541,1.471	c-1.852,0-3.357-0.377-4.518-1.131s-2.043-1.846-2.648-3.275s-0.908-2.965-0.908-4.605c0-1.789,0.342-3.35,1.025-4.682	s1.656-2.344,2.918-3.035s2.65-1.037,4.166-1.037c1.719,0,3.164,0.438,4.336,1.313s1.988,2.105,2.449,3.691l-2.238,0.527	c-0.398-1.25-0.977-2.16-1.734-2.73s-1.711-0.855-2.859-0.855c-1.32,0-2.424,0.316-3.311,0.949s-1.51,1.482-1.869,2.549	s-0.539,2.166-0.539,3.299c0,1.461,0.213,2.736,0.639,3.826s1.088,1.904,1.986,2.443s1.871,0.809,2.918,0.809	c1.273,0,2.352-0.367,3.234-1.102S96.025,57.296,96.338,55.851z"/><rect width="19.8" height="1.701" x="61.284" y="51.58"/><path d="M5.002,61.875v-17.18h2.273v7.055h8.93v-7.055h2.273v17.18h-2.273v-8.098h-8.93v8.098H5.002z"/><rect width="20.6" height="1.701" x="20.834" y="51.58"/><path d="M124.002,61.875v-17.18h2.273v7.055h8.93v-7.055h2.273v17.18h-2.273v-8.098h-8.93v8.098H124.002z"/><rect width="20.8" height="1.701" x="100.935" y="51.58"/><path d="M84.299,22.226V5.046h2.273v7.055h8.93V5.046h2.273v17.18h-2.273v-8.098h-8.93v8.098H84.299z"/><rect width="1.699" height="17.65" x="90.185" y="24.48"/><path d="M84.299,101.534v-17.18h2.273v7.055h8.93v-7.055h2.273v17.18h-2.273v-8.098h-8.93v8.098H84.299z"/><rect width="1.699" height="17.6" x="90.185" y="64.48"/></svg>